STARTFONT 2.1
COMMENT
COMMENT Converted from OpenType font "Px437_Wyse700b.ttf" by "otf2bdf 3.0".
COMMENT
FONT -FreeType-Px437 Wyse700b-Medium-R-Normal--16-160-72-72-P-124-ISO10646-1
SIZE 16 72 72
FONTBOUNDINGBOX 16 16 0 -3
STARTPROPERTIES 19
FOUNDRY "FreeType"
FAMILY_NAME "Px437 Wyse700b"
WEIGHT_NAME "Medium"
SLANT "R"
SETWIDTH_NAME "Normal"
ADD_STYLE_NAME ""
PIXEL_SIZE 16
POINT_SIZE 160
RESOLUTION_X 72
RESOLUTION_Y 72
SPACING "P"
AVERAGE_WIDTH 124
CHARSET_REGISTRY "ISO10646"
CHARSET_ENCODING "1"
FONT_ASCENT 13
FONT_DESCENT 3
COPYRIGHT "Outline (vector) version (c) 2015 VileR"
_OTF_FONTFILE "Px437_Wyse700b.ttf"
_OTF_PSNAME "Px437_Wyse700b"
ENDPROPERTIES
CHARS 288
STARTCHAR 0000
ENCODING 0
SWIDTH 1000 0
DWIDTH 16 0
BBX 0 0 0 0
BITMAP
ENDCHAR
STARTCHAR 0001
ENCODING 1
SWIDTH 1000 0
DWIDTH 16 0
BBX 16 11 0 0
BITMAP
3FFC
6006
C003
CC33
C003
C003
CFF3
C3C3
C003
6006
3FFC
ENDCHAR
STARTCHAR 0002
ENCODING 2
SWIDTH 1000 0
DWIDTH 16 0
BBX 16 11 0 0
BITMAP
3FFC
7FFE
FFFF
F3CF
FFFF
FFFF
F00F
FC3F
FFFF
7FFE
3FFC
ENDCHAR
STARTCHAR 0003
ENCODING 3
SWIDTH 1000 0
DWIDTH 16 0
BBX 14 9 1 1
BITMAP
3CF0
7FF8
FFFC
FFFC
FFFC
7FF8
3FF0
0FC0
0300
ENDCHAR
STARTCHAR 0004
ENCODING 4
SWIDTH 1000 0
DWIDTH 16 0
BBX 10 9 3 1
BITMAP
0C00
1E00
3F00
7F80
FFC0
7F80
3F00
1E00
0C00
ENDCHAR
STARTCHAR 0005
ENCODING 5
SWIDTH 1000 0
DWIDTH 16 0
BBX 13 11 2 0
BITMAP
0700
0F80
0F80
7770
FFF8
FFF8
7770
0700
0700
0700
1FC0
ENDCHAR
STARTCHAR 0006
ENCODING 6
SWIDTH 1000 0
DWIDTH 16 0
BBX 15 11 1 0
BITMAP
0380
0FE0
3FF8
FFFE
FFFE
FFFE
3BB8
0380
0380
0380
0FE0
ENDCHAR
STARTCHAR 0007
ENCODING 7
SWIDTH 1000 0
DWIDTH 16 0
BBX 8 4 4 3
BITMAP
3C
FF
FF
3C
ENDCHAR
STARTCHAR 0008
ENCODING 8
SWIDTH 1000 0
DWIDTH 16 0
BBX 16 16 0 -3
BITMAP
FFFF
FFFF
FFFF
FFFF
FFFF
FFFF
FC3F
F00F
F00F
FC3F
FFFF
FFFF
FFFF
FFFF
FFFF
FFFF
ENDCHAR
STARTCHAR 0009
ENCODING 9
SWIDTH 1000 0
DWIDTH 16 0
BBX 12 6 2 2
BITMAP
3FC0
F0F0
C030
C030
F0F0
3FC0
ENDCHAR
STARTCHAR 000A
ENCODING 10
SWIDTH 1000 0
DWIDTH 16 0
BBX 16 16 0 -3
BITMAP
FFFF
FFFF
FFFF
FFFF
FFFF
F00F
C3C3
CFF3
CFF3
C3C3
F00F
FFFF
FFFF
FFFF
FFFF
FFFF
ENDCHAR
STARTCHAR 000B
ENCODING 11
SWIDTH 1000 0
DWIDTH 16 0
BBX 14 10 2 0
BITMAP
01FC
007C
00EC
01C0
1F80
70E0
E070
E070
70E0
1F80
ENDCHAR
STARTCHAR 000C
ENCODING 12
SWIDTH 1000 0
DWIDTH 16 0
BBX 11 11 3 0
BITMAP
1F00
71C0
E0E0
E0E0
71C0
1F00
0E00
0E00
FFE0
0E00
0E00
ENDCHAR
STARTCHAR 000D
ENCODING 13
SWIDTH 1000 0
DWIDTH 16 0
BBX 15 11 1 0
BITMAP
1FFE
1C0E
1FFE
1C00
1C00
1C00
1C00
1C00
7C00
FC00
7800
ENDCHAR
STARTCHAR 000E
ENCODING 14
SWIDTH 1000 0
DWIDTH 16 0
BBX 14 12 1 -1
BITMAP
3FFC
381C
3FFC
381C
381C
381C
381C
381C
383C
787C
F838
7000
ENDCHAR
STARTCHAR 000F
ENCODING 15
SWIDTH 1000 0
DWIDTH 16 0
BBX 15 9 1 1
BITMAP
0380
739C
3BB8
1FF0
FC7E
1FF0
3BB8
739C
0380
ENDCHAR
STARTCHAR 0010
ENCODING 16
SWIDTH 1000 0
DWIDTH 16 0
BBX 12 11 2 0
BITMAP
C000
F000
FC00
FF00
FFC0
FFF0
FFC0
FF00
FC00
F000
C000
ENDCHAR
STARTCHAR 0011
ENCODING 17
SWIDTH 1000 0
DWIDTH 16 0
BBX 12 11 2 0
BITMAP
0030
00F0
03F0
0FF0
3FF0
FFF0
3FF0
0FF0
03F0
00F0
0030
ENDCHAR
STARTCHAR 0012
ENCODING 18
SWIDTH 1000 0
DWIDTH 16 0
BBX 11 11 3 0
BITMAP
0E00
3F80
EEE0
0E00
0E00
0E00
0E00
0E00
EEE0
3F80
0E00
ENDCHAR
STARTCHAR 0013
ENCODING 19
SWIDTH 1000 0
DWIDTH 16 0
BBX 9 11 4 0
BITMAP
E380
E380
E380
E380
E380
E380
E380
E380
0000
E380
E380
ENDCHAR
STARTCHAR 0014
ENCODING 20
SWIDTH 1000 0
DWIDTH 16 0
BBX 15 11 1 0
BITMAP
3FFE
E39C
E39C
E39C
E39C
3F9C
039C
039C
039C
039C
039C
ENDCHAR
STARTCHAR 0015
ENCODING 21
SWIDTH 1000 0
DWIDTH 16 0
BBX 13 12 2 0
BITMAP
3FE0
E038
3800
0F80
38E0
E038
E038
38E0
0F80
00E0
E038
3FE0
ENDCHAR
STARTCHAR 0016
ENCODING 22
SWIDTH 1000 0
DWIDTH 16 0
BBX 14 3 2 0
BITMAP
FFFC
FFFC
FFFC
ENDCHAR
STARTCHAR 0017
ENCODING 23
SWIDTH 1000 0
DWIDTH 16 0
BBX 13 12 2 -1
BITMAP
0700
1FC0
7770
0700
0700
0700
0700
0700
7770
1FC0
0700
FFF8
ENDCHAR
STARTCHAR 0018
ENCODING 24
SWIDTH 1000 0
DWIDTH 16 0
BBX 11 11 3 0
BITMAP
0E00
3F80
EEE0
0E00
0E00
0E00
0E00
0E00
0E00
0E00
0E00
ENDCHAR
STARTCHAR 0019
ENCODING 25
SWIDTH 1000 0
DWIDTH 16 0
BBX 11 11 3 0
BITMAP
0E00
0E00
0E00
0E00
0E00
0E00
0E00
0E00
EEE0
3F80
0E00
ENDCHAR
STARTCHAR 001A
ENCODING 26
SWIDTH 1000 0
DWIDTH 16 0
BBX 14 5 2 3
BITMAP
01C0
0070
FFFC
0070
01C0
ENDCHAR
STARTCHAR 001B
ENCODING 27
SWIDTH 1000 0
DWIDTH 16 0
BBX 14 5 2 3
BITMAP
0E00
3800
FFFC
3800
0E00
ENDCHAR
STARTCHAR 001C
ENCODING 28
SWIDTH 1000 0
DWIDTH 16 0
BBX 14 4 2 3
BITMAP
E000
E000
E000
FFFC
ENDCHAR
STARTCHAR 001D
ENCODING 29
SWIDTH 1000 0
DWIDTH 16 0
BBX 14 5 1 3
BITMAP
3870
7038
FFFC
7038
3870
ENDCHAR
STARTCHAR 001E
ENCODING 30
SWIDTH 1000 0
DWIDTH 16 0
BBX 14 7 1 2
BITMAP
0300
0780
0FC0
1FE0
3FF0
7FF8
FFFC
ENDCHAR
STARTCHAR 001F
ENCODING 31
SWIDTH 1000 0
DWIDTH 16 0
BBX 14 7 1 2
BITMAP
FFFC
7FF8
3FF0
1FE0
0FC0
0780
0300
ENDCHAR
STARTCHAR 0020
ENCODING 32
SWIDTH 1000 0
DWIDTH 16 0
BBX 0 0 0 0
BITMAP
ENDCHAR
STARTCHAR 0021
ENCODING 33
SWIDTH 1000 0
DWIDTH 16 0
BBX 3 11 7 0
BITMAP
E0
E0
E0
E0
E0
E0
E0
E0
00
E0
E0
ENDCHAR
STARTCHAR 0022
ENCODING 34
SWIDTH 1000 0
DWIDTH 16 0
BBX 10 4 3 8
BITMAP
E1C0
E1C0
E1C0
E1C0
ENDCHAR
STARTCHAR 0023
ENCODING 35
SWIDTH 1000 0
DWIDTH 16 0
BBX 14 10 1 0
BITMAP
3870
3870
FFFC
3870
3870
3870
3870
FFFC
3870
3870
ENDCHAR
STARTCHAR 0024
ENCODING 36
SWIDTH 1000 0
DWIDTH 16 0
BBX 14 13 1 -1
BITMAP
0300
1FE0
7338
E31C
E300
7300
1FE0
0338
031C
E31C
7338
1FE0
0300
ENDCHAR
STARTCHAR 0025
ENCODING 37
SWIDTH 1000 0
DWIDTH 16 0
BBX 11 9 3 0
BITMAP
F0E0
F1C0
0380
0700
0E00
1C00
3800
71E0
E1E0
ENDCHAR
STARTCHAR 0026
ENCODING 38
SWIDTH 1000 0
DWIDTH 16 0
BBX 14 11 1 0
BITMAP
0F80
38E0
7070
38E0
0F80
1F9C
71F8
E0F0
E0F0
71F8
1F9C
ENDCHAR
STARTCHAR 0027
ENCODING 39
SWIDTH 1000 0
DWIDTH 16 0
BBX 6 4 5 8
BITMAP
1C
38
70
E0
ENDCHAR
STARTCHAR 0028
ENCODING 40
SWIDTH 1000 0
DWIDTH 16 0
BBX 6 11 5 0
BITMAP
1C
38
70
E0
E0
E0
E0
E0
70
38
1C
ENDCHAR
STARTCHAR 0029
ENCODING 41
SWIDTH 1000 0
DWIDTH 16 0
BBX 6 11 5 0
BITMAP
E0
70
38
1C
1C
1C
1C
1C
38
70
E0
ENDCHAR
STARTCHAR 002A
ENCODING 42
SWIDTH 1000 0
DWIDTH 16 0
BBX 13 5 2 3
BITMAP
38E0
0F80
FFF8
0F80
38E0
ENDCHAR
STARTCHAR 002B
ENCODING 43
SWIDTH 1000 0
DWIDTH 16 0
BBX 13 7 2 2
BITMAP
0700
0700
0700
FFF8
0700
0700
0700
ENDCHAR
STARTCHAR 002C
ENCODING 44
SWIDTH 1000 0
DWIDTH 16 0
BBX 5 4 5 -2
BITMAP
78
78
70
E0
ENDCHAR
STARTCHAR 002D
ENCODING 45
SWIDTH 1000 0
DWIDTH 16 0
BBX 13 1 2 5
BITMAP
FFF8
ENDCHAR
STARTCHAR 002E
ENCODING 46
SWIDTH 1000 0
DWIDTH 16 0
BBX 4 2 6 0
BITMAP
F0
F0
ENDCHAR
STARTCHAR 002F
ENCODING 47
SWIDTH 1000 0
DWIDTH 16 0
BBX 11 9 3 1
BITMAP
00E0
01C0
0380
0700
0E00
1C00
3800
7000
E000
ENDCHAR
STARTCHAR 0030
ENCODING 48
SWIDTH 1000 0
DWIDTH 16 0
BBX 12 11 2 0
BITMAP
1F80
70E0
E0F0
E1F0
E370
E670
EC70
F870
F070
70E0
1F80
ENDCHAR
STARTCHAR 0031
ENCODING 49
SWIDTH 1000 0
DWIDTH 16 0
BBX 6 11 4 0
BITMAP
1C
3C
FC
1C
1C
1C
1C
1C
1C
1C
1C
ENDCHAR
STARTCHAR 0032
ENCODING 50
SWIDTH 1000 0
DWIDTH 16 0
BBX 13 11 2 0
BITMAP
3FC0
E070
0038
0038
0070
01C0
0700
1C00
7000
E000
FFF8
ENDCHAR
STARTCHAR 0033
ENCODING 51
SWIDTH 1000 0
DWIDTH 16 0
BBX 13 11 2 0
BITMAP
3FC0
E070
0038
0038
0070
07C0
0070
0038
0038
E070
3FC0
ENDCHAR
STARTCHAR 0034
ENCODING 52
SWIDTH 1000 0
DWIDTH 16 0
BBX 12 11 2 0
BITMAP
07C0
0FC0
1DC0
39C0
71C0
E1C0
FFF0
01C0
01C0
01C0
01C0
ENDCHAR
STARTCHAR 0035
ENCODING 53
SWIDTH 1000 0
DWIDTH 16 0
BBX 13 11 2 0
BITMAP
FFF8
E000
E000
E000
FFC0
0070
0038
0038
0038
E070
3FC0
ENDCHAR
STARTCHAR 0036
ENCODING 54
SWIDTH 1000 0
DWIDTH 16 0
BBX 13 11 2 0
BITMAP
1FC0
7000
E000
E000
E000
FFC0
E070
E038
E038
7070
1FC0
ENDCHAR
STARTCHAR 0037
ENCODING 55
SWIDTH 1000 0
DWIDTH 16 0
BBX 11 11 2 0
BITMAP
FFE0
00E0
00E0
01C0
0380
0700
0E00
0E00
0E00
0E00
0E00
ENDCHAR
STARTCHAR 0038
ENCODING 56
SWIDTH 1000 0
DWIDTH 16 0
BBX 13 11 2 0
BITMAP
1FC0
7070
E038
E038
7070
1FC0
7070
E038
E038
7070
1FC0
ENDCHAR
STARTCHAR 0039
ENCODING 57
SWIDTH 1000 0
DWIDTH 16 0
BBX 13 11 2 0
BITMAP
1FC0
7070
E038
E038
7038
1FF8
0038
0038
0038
0070
3FC0
ENDCHAR
STARTCHAR 003A
ENCODING 58
SWIDTH 1000 0
DWIDTH 16 0
BBX 3 8 6 1
BITMAP
E0
E0
00
00
00
00
E0
E0
ENDCHAR
STARTCHAR 003B
ENCODING 59
SWIDTH 1000 0
DWIDTH 16 0
BBX 4 9 5 0
BITMAP
70
70
00
00
00
00
70
70
E0
ENDCHAR
STARTCHAR 003C
ENCODING 60
SWIDTH 1000 0
DWIDTH 16 0
BBX 8 11 3 0
BITMAP
07
0E
1C
38
70
E0
70
38
1C
0E
07
ENDCHAR
STARTCHAR 003D
ENCODING 61
SWIDTH 1000 0
DWIDTH 16 0
BBX 12 4 2 3
BITMAP
FFF0
0000
0000
FFF0
ENDCHAR
STARTCHAR 003E
ENCODING 62
SWIDTH 1000 0
DWIDTH 16 0
BBX 8 11 5 0
BITMAP
E0
70
38
1C
0E
07
0E
1C
38
70
E0
ENDCHAR
STARTCHAR 003F
ENCODING 63
SWIDTH 1000 0
DWIDTH 16 0
BBX 12 11 2 0
BITMAP
1F80
70E0
E070
00E0
01C0
0380
0700
0700
0000
0700
0700
ENDCHAR
STARTCHAR 0040
ENCODING 64
SWIDTH 1000 0
DWIDTH 16 0
BBX 14 11 1 0
BITMAP
1FE0
7038
E01C
E3FC
E71C
E71C
E71C
E3F8
E000
7000
1FF8
ENDCHAR
STARTCHAR 0041
ENCODING 65
SWIDTH 1000 0
DWIDTH 16 0
BBX 12 11 2 0
BITMAP
0F00
1F80
39C0
70E0
E070
E070
FFF0
E070
E070
E070
E070
ENDCHAR
STARTCHAR 0042
ENCODING 66
SWIDTH 1000 0
DWIDTH 16 0
BBX 13 11 2 0
BITMAP
FFC0
E070
E038
E038
E070
FFC0
E070
E038
E038
E070
FFC0
ENDCHAR
STARTCHAR 0043
ENCODING 67
SWIDTH 1000 0
DWIDTH 16 0
BBX 13 11 2 0
BITMAP
1FC0
7070
E038
E000
E000
E000
E000
E000
E038
7070
1FC0
ENDCHAR
STARTCHAR 0044
ENCODING 68
SWIDTH 1000 0
DWIDTH 16 0
BBX 13 11 2 0
BITMAP
FFC0
E070
E038
E038
E038
E038
E038
E038
E038
E070
FFC0
ENDCHAR
STARTCHAR 0045
ENCODING 69
SWIDTH 1000 0
DWIDTH 16 0
BBX 12 11 2 0
BITMAP
FFF0
E000
E000
E000
E000
FF80
E000
E000
E000
E000
FFF0
ENDCHAR
STARTCHAR 0046
ENCODING 70
SWIDTH 1000 0
DWIDTH 16 0
BBX 12 11 2 0
BITMAP
FFF0
E000
E000
E000
E000
FF80
E000
E000
E000
E000
E000
ENDCHAR
STARTCHAR 0047
ENCODING 71
SWIDTH 1000 0
DWIDTH 16 0
BBX 13 11 2 0
BITMAP
1FC0
7070
E038
E000
E000
E000
E0F8
E038
E038
7070
1FC0
ENDCHAR
STARTCHAR 0048
ENCODING 72
SWIDTH 1000 0
DWIDTH 16 0
BBX 13 11 2 0
BITMAP
E038
E038
E038
E038
E038
FFF8
E038
E038
E038
E038
E038
ENDCHAR
STARTCHAR 0049
ENCODING 73
SWIDTH 1000 0
DWIDTH 16 0
BBX 3 11 7 0
BITMAP
E0
E0
E0
E0
E0
E0
E0
E0
E0
E0
E0
ENDCHAR
STARTCHAR 004A
ENCODING 74
SWIDTH 1000 0
DWIDTH 16 0
BBX 11 11 3 0
BITMAP
00E0
00E0
00E0
00E0
00E0
00E0
00E0
00E0
E0E0
71C0
1F00
ENDCHAR
STARTCHAR 004B
ENCODING 75
SWIDTH 1000 0
DWIDTH 16 0
BBX 11 11 3 0
BITMAP
E1C0
E380
E700
EE00
FC00
FC00
EE00
E700
E380
E1C0
E0E0
ENDCHAR
STARTCHAR 004C
ENCODING 76
SWIDTH 1000 0
DWIDTH 16 0
BBX 12 11 2 0
BITMAP
E000
E000
E000
E000
E000
E000
E000
E000
E000
E000
FFF0
ENDCHAR
STARTCHAR 004D
ENCODING 77
SWIDTH 1000 0
DWIDTH 16 0
BBX 14 11 1 0
BITMAP
F03C
F87C
FCFC
EFDC
E79C
E31C
E01C
E01C
E01C
E01C
E01C
ENDCHAR
STARTCHAR 004E
ENCODING 78
SWIDTH 1000 0
DWIDTH 16 0
BBX 13 11 2 0
BITMAP
E038
F038
F838
FC38
EE38
E738
E3B8
E1F8
E0F8
E078
E038
ENDCHAR
STARTCHAR 004F
ENCODING 79
SWIDTH 1000 0
DWIDTH 16 0
BBX 13 11 2 0
BITMAP
1FC0
7070
E038
E038
E038
E038
E038
E038
E038
7070
1FC0
ENDCHAR
STARTCHAR 0050
ENCODING 80
SWIDTH 1000 0
DWIDTH 16 0
BBX 13 11 2 0
BITMAP
FFC0
E070
E038
E038
E070
FFC0
E000
E000
E000
E000
E000
ENDCHAR
STARTCHAR 0051
ENCODING 81
SWIDTH 1000 0
DWIDTH 16 0
BBX 13 12 2 -1
BITMAP
1FC0
7070
E038
E038
E038
E038
E038
E038
E3B8
71F0
1FE0
0070
ENDCHAR
STARTCHAR 0052
ENCODING 82
SWIDTH 1000 0
DWIDTH 16 0
BBX 13 11 2 0
BITMAP
FFC0
E070
E038
E038
E070
FFC0
E380
E1C0
E0E0
E070
E038
ENDCHAR
STARTCHAR 0053
ENCODING 83
SWIDTH 1000 0
DWIDTH 16 0
BBX 14 11 1 0
BITMAP
1FE0
7038
E01C
E000
7000
1FE0
0038
001C
E01C
7038
1FE0
ENDCHAR
STARTCHAR 0054
ENCODING 84
SWIDTH 1000 0
DWIDTH 16 0
BBX 13 11 2 0
BITMAP
FFF8
0700
0700
0700
0700
0700
0700
0700
0700
0700
0700
ENDCHAR
STARTCHAR 0055
ENCODING 85
SWIDTH 1000 0
DWIDTH 16 0
BBX 13 11 2 0
BITMAP
E038
E038
E038
E038
E038
E038
E038
E038
E038
7070
1FC0
ENDCHAR
STARTCHAR 0056
ENCODING 86
SWIDTH 1000 0
DWIDTH 16 0
BBX 12 11 2 0
BITMAP
E070
E070
E070
E070
E070
E070
E070
70E0
39C0
1F80
0F00
ENDCHAR
STARTCHAR 0057
ENCODING 87
SWIDTH 1000 0
DWIDTH 16 0
BBX 14 11 1 0
BITMAP
E01C
E01C
E01C
E01C
E01C
E01C
E31C
E79C
EFDC
7CF8
3870
ENDCHAR
STARTCHAR 0058
ENCODING 88
SWIDTH 1000 0
DWIDTH 16 0
BBX 12 11 2 0
BITMAP
E070
E070
70E0
39C0
1F80
0F00
1F80
39C0
70E0
E070
E070
ENDCHAR
STARTCHAR 0059
ENCODING 89
SWIDTH 1000 0
DWIDTH 16 0
BBX 13 11 2 0
BITMAP
E038
7070
38E0
1DC0
0F80
0700
0700
0700
0700
0700
0700
ENDCHAR
STARTCHAR 005A
ENCODING 90
SWIDTH 1000 0
DWIDTH 16 0
BBX 13 11 2 0
BITMAP
FFF8
0070
00E0
01C0
0380
0700
0E00
1C00
3800
7000
FFF8
ENDCHAR
STARTCHAR 005B
ENCODING 91
SWIDTH 1000 0
DWIDTH 16 0
BBX 7 11 5 0
BITMAP
FE
E0
E0
E0
E0
E0
E0
E0
E0
E0
FE
ENDCHAR
STARTCHAR 005C
ENCODING 92
SWIDTH 1000 0
DWIDTH 16 0
BBX 11 9 3 1
BITMAP
E000
7000
3800
1C00
0E00
0700
0380
01C0
00E0
ENDCHAR
STARTCHAR 005D
ENCODING 93
SWIDTH 1000 0
DWIDTH 16 0
BBX 7 11 5 0
BITMAP
FE
0E
0E
0E
0E
0E
0E
0E
0E
0E
FE
ENDCHAR
STARTCHAR 005E
ENCODING 94
SWIDTH 1000 0
DWIDTH 16 0
BBX 12 5 2 8
BITMAP
0F00
1F80
39C0
70E0
E070
ENDCHAR
STARTCHAR 005F
ENCODING 95
SWIDTH 1000 0
DWIDTH 16 0
BBX 16 1 0 -2
BITMAP
FFFF
ENDCHAR
STARTCHAR 0060
ENCODING 96
SWIDTH 1000 0
DWIDTH 16 0
BBX 6 4 5 8
BITMAP
E0
70
38
1C
ENDCHAR
STARTCHAR 0061
ENCODING 97
SWIDTH 1000 0
DWIDTH 16 0
BBX 13 7 2 0
BITMAP
3FE0
0038
3FF8
E038
E038
E038
3FF8
ENDCHAR
STARTCHAR 0062
ENCODING 98
SWIDTH 1000 0
DWIDTH 16 0
BBX 13 11 2 0
BITMAP
E000
E000
E000
E000
FFC0
E070
E038
E038
E038
E038
FFE0
ENDCHAR
STARTCHAR 0063
ENCODING 99
SWIDTH 1000 0
DWIDTH 16 0
BBX 13 7 2 0
BITMAP
3FE0
E038
E000
E000
E000
E038
3FE0
ENDCHAR
STARTCHAR 0064
ENCODING 100
SWIDTH 1000 0
DWIDTH 16 0
BBX 13 11 2 0
BITMAP
0038
0038
0038
0038
1FF8
7038
E038
E038
E038
E038
3FF8
ENDCHAR
STARTCHAR 0065
ENCODING 101
SWIDTH 1000 0
DWIDTH 16 0
BBX 13 7 2 0
BITMAP
3FE0
E038
E038
FFF8
E000
E000
3FF0
ENDCHAR
STARTCHAR 0066
ENCODING 102
SWIDTH 1000 0
DWIDTH 16 0
BBX 9 11 4 0
BITMAP
0F80
3800
3800
3800
3800
FF00
3800
3800
3800
3800
3800
ENDCHAR
STARTCHAR 0067
ENCODING 103
SWIDTH 1000 0
DWIDTH 16 0
BBX 13 9 2 -2
BITMAP
3FE0
E038
E038
E038
E038
3FF8
0038
0038
7FE0
ENDCHAR
STARTCHAR 0068
ENCODING 104
SWIDTH 1000 0
DWIDTH 16 0
BBX 13 11 2 0
BITMAP
E000
E000
E000
E000
EFE0
F038
E038
E038
E038
E038
E038
ENDCHAR
STARTCHAR 0069
ENCODING 105
SWIDTH 1000 0
DWIDTH 16 0
BBX 3 10 7 0
BITMAP
E0
E0
00
E0
E0
E0
E0
E0
E0
E0
ENDCHAR
STARTCHAR 006A
ENCODING 106
SWIDTH 1000 0
DWIDTH 16 0
BBX 8 12 4 -2
BITMAP
07
07
00
07
07
07
07
07
07
07
0E
F8
ENDCHAR
STARTCHAR 006B
ENCODING 107
SWIDTH 1000 0
DWIDTH 16 0
BBX 9 11 4 0
BITMAP
E000
E000
E000
E000
E380
E700
EE00
FC00
EE00
E700
E380
ENDCHAR
STARTCHAR 006C
ENCODING 108
SWIDTH 1000 0
DWIDTH 16 0
BBX 3 11 7 0
BITMAP
E0
E0
E0
E0
E0
E0
E0
E0
E0
E0
E0
ENDCHAR
STARTCHAR 006D
ENCODING 109
SWIDTH 1000 0
DWIDTH 16 0
BBX 13 7 2 0
BITMAP
F9E0
E738
E738
E738
E738
E738
E738
ENDCHAR
STARTCHAR 006E
ENCODING 110
SWIDTH 1000 0
DWIDTH 16 0
BBX 12 7 2 0
BITMAP
FF80
E0E0
E070
E070
E070
E070
E070
ENDCHAR
STARTCHAR 006F
ENCODING 111
SWIDTH 1000 0
DWIDTH 16 0
BBX 13 7 2 0
BITMAP
1FC0
7070
E038
E038
E038
7070
1FC0
ENDCHAR
STARTCHAR 0070
ENCODING 112
SWIDTH 1000 0
DWIDTH 16 0
BBX 13 9 2 -2
BITMAP
FFC0
E070
E038
E038
E070
FFC0
E000
E000
E000
ENDCHAR
STARTCHAR 0071
ENCODING 113
SWIDTH 1000 0
DWIDTH 16 0
BBX 13 9 2 -2
BITMAP
1FF8
7038
E038
E038
7038
1FF8
0038
0038
0038
ENDCHAR
STARTCHAR 0072
ENCODING 114
SWIDTH 1000 0
DWIDTH 16 0
BBX 12 7 2 0
BITMAP
FFC0
E070
E000
E000
E000
E000
E000
ENDCHAR
STARTCHAR 0073
ENCODING 115
SWIDTH 1000 0
DWIDTH 16 0
BBX 13 7 2 0
BITMAP
3FF0
E000
E000
3FE0
0038
0038
7FE0
ENDCHAR
STARTCHAR 0074
ENCODING 116
SWIDTH 1000 0
DWIDTH 16 0
BBX 11 11 3 0
BITMAP
0E00
0E00
0E00
0E00
FFE0
0E00
0E00
0E00
0E00
0E00
0E00
ENDCHAR
STARTCHAR 0075
ENCODING 117
SWIDTH 1000 0
DWIDTH 16 0
BBX 12 7 2 0
BITMAP
E070
E070
E070
E070
E070
E070
3FF0
ENDCHAR
STARTCHAR 0076
ENCODING 118
SWIDTH 1000 0
DWIDTH 16 0
BBX 14 7 1 0
BITMAP
E01C
7038
3870
1CE0
0FC0
0780
0300
ENDCHAR
STARTCHAR 0077
ENCODING 119
SWIDTH 1000 0
DWIDTH 16 0
BBX 13 7 2 0
BITMAP
E038
E038
E038
E738
EFB8
7DF0
38E0
ENDCHAR
STARTCHAR 0078
ENCODING 120
SWIDTH 1000 0
DWIDTH 16 0
BBX 10 7 3 0
BITMAP
E1C0
7380
3F00
1E00
3F00
7380
E1C0
ENDCHAR
STARTCHAR 0079
ENCODING 121
SWIDTH 1000 0
DWIDTH 16 0
BBX 13 9 2 -2
BITMAP
E038
7070
38E0
1DC0
0F80
0700
0E00
1C00
3800
ENDCHAR
STARTCHAR 007A
ENCODING 122
SWIDTH 1000 0
DWIDTH 16 0
BBX 13 7 2 0
BITMAP
FFF8
0070
01C0
0700
1C00
7000
FFF8
ENDCHAR
STARTCHAR 007B
ENCODING 123
SWIDTH 1000 0
DWIDTH 16 0
BBX 10 11 3 0
BITMAP
07C0
0E00
1C00
1C00
1C00
F000
1C00
1C00
1C00
0E00
07C0
ENDCHAR
STARTCHAR 007C
ENCODING 124
SWIDTH 1000 0
DWIDTH 16 0
BBX 3 11 7 0
BITMAP
E0
E0
E0
E0
E0
00
E0
E0
E0
E0
E0
ENDCHAR
STARTCHAR 007D
ENCODING 125
SWIDTH 1000 0
DWIDTH 16 0
BBX 10 11 3 0
BITMAP
F800
1C00
0E00
0E00
0E00
03C0
0E00
0E00
0E00
1C00
F800
ENDCHAR
STARTCHAR 007E
ENCODING 126
SWIDTH 1000 0
DWIDTH 16 0
BBX 13 2 2 9
BITMAP
1E78
F3C0
ENDCHAR
STARTCHAR 007F
ENCODING 127
SWIDTH 1000 0
DWIDTH 16 0
BBX 15 6 1 3
BITMAP
0380
0EE0
3838
E00E
E00E
FFFE
ENDCHAR
STARTCHAR 00A0
ENCODING 160
SWIDTH 1000 0
DWIDTH 16 0
BBX 0 0 0 0
BITMAP
ENDCHAR
STARTCHAR 00A1
ENCODING 161
SWIDTH 1000 0
DWIDTH 16 0
BBX 3 11 7 0
BITMAP
E0
E0
00
E0
E0
E0
E0
E0
E0
E0
E0
ENDCHAR
STARTCHAR 00A2
ENCODING 162
SWIDTH 1000 0
DWIDTH 16 0
BBX 13 11 2 0
BITMAP
0700
0700
3FE0
E038
E000
E000
E000
E078
3FE0
0700
0700
ENDCHAR
STARTCHAR 00A3
ENCODING 163
SWIDTH 1000 0
DWIDTH 16 0
BBX 13 11 2 0
BITMAP
07C0
1C70
1C00
1C00
7F00
1C00
1C00
1C00
1C00
FC38
FFE0
ENDCHAR
STARTCHAR 00A5
ENCODING 165
SWIDTH 1000 0
DWIDTH 16 0
BBX 13 11 2 0
BITMAP
E038
7070
38E0
1DC0
0F80
FFF8
0700
FFF8
0700
0700
0700
ENDCHAR
STARTCHAR 00A7
ENCODING 167
SWIDTH 1000 0
DWIDTH 16 0
BBX 13 12 2 0
BITMAP
3FE0
E038
3800
0F80
38E0
E038
E038
38E0
0F80
00E0
E038
3FE0
ENDCHAR
STARTCHAR 00AA
ENCODING 170
SWIDTH 1000 0
DWIDTH 16 0
BBX 12 6 2 5
BITMAP
3FC0
E1C0
E1C0
3FF0
0000
FFF0
ENDCHAR
STARTCHAR 00AB
ENCODING 171
SWIDTH 1000 0
DWIDTH 16 0
BBX 13 5 2 3
BITMAP
0E38
38E0
E380
38E0
0E38
ENDCHAR
STARTCHAR 00AC
ENCODING 172
SWIDTH 1000 0
DWIDTH 16 0
BBX 14 4 2 2
BITMAP
FFFC
001C
001C
001C
ENDCHAR
STARTCHAR 00B0
ENCODING 176
SWIDTH 1000 0
DWIDTH 16 0
BBX 10 4 2 8
BITMAP
3F00
E1C0
E1C0
3F00
ENDCHAR
STARTCHAR 00B1
ENCODING 177
SWIDTH 1000 0
DWIDTH 16 0
BBX 13 9 2 1
BITMAP
0700
0700
0700
FFF8
0700
0700
0700
0000
FFF8
ENDCHAR
STARTCHAR 00B2
ENCODING 178
SWIDTH 1000 0
DWIDTH 16 0
BBX 10 7 0 5
BITMAP
3F00
E1C0
01C0
0700
1C00
7000
FFC0
ENDCHAR
STARTCHAR 00B5
ENCODING 181
SWIDTH 1000 0
DWIDTH 16 0
BBX 13 9 2 -1
BITMAP
3838
3838
3838
3838
3870
3FC0
3800
3800
E000
ENDCHAR
STARTCHAR 00B6
ENCODING 182
SWIDTH 1000 0
DWIDTH 16 0
BBX 15 11 1 0
BITMAP
3FFE
E39C
E39C
E39C
E39C
3F9C
039C
039C
039C
039C
039C
ENDCHAR
STARTCHAR 00B7
ENCODING 183
SWIDTH 1000 0
DWIDTH 16 0
BBX 3 1 7 4
BITMAP
E0
ENDCHAR
STARTCHAR 00BA
ENCODING 186
SWIDTH 1000 0
DWIDTH 16 0
BBX 10 6 2 5
BITMAP
3F00
E1C0
E1C0
3F00
0000
FFC0
ENDCHAR
STARTCHAR 00BB
ENCODING 187
SWIDTH 1000 0
DWIDTH 16 0
BBX 13 5 2 3
BITMAP
E380
38E0
0E38
38E0
E380
ENDCHAR
STARTCHAR 00BC
ENCODING 188
SWIDTH 1000 0
DWIDTH 16 0
BBX 14 12 1 -1
BITMAP
7000
F000
7000
7038
70E0
0380
0E00
3838
E0F8
03B8
03FC
0038
ENDCHAR
STARTCHAR 00BD
ENCODING 189
SWIDTH 1000 0
DWIDTH 16 0
BBX 14 12 1 -1
BITMAP
7000
F000
7000
7038
70E0
0380
0E00
38F8
E01C
0038
00E0
01FC
ENDCHAR
STARTCHAR 00BF
ENCODING 191
SWIDTH 1000 0
DWIDTH 16 0
BBX 12 11 2 0
BITMAP
0E00
0E00
0000
0E00
0E00
0E00
1C00
7000
E070
70E0
1F80
ENDCHAR
STARTCHAR 00C4
ENCODING 196
SWIDTH 1000 0
DWIDTH 16 0
BBX 12 12 2 0
BITMAP
70E0
70E0
0000
0F00
1F80
39C0
70E0
E070
FFF0
E070
E070
E070
ENDCHAR
STARTCHAR 00C5
ENCODING 197
SWIDTH 1000 0
DWIDTH 16 0
BBX 12 13 2 0
BITMAP
0F00
39C0
0F00
0000
0F00
1F80
39C0
70E0
E070
FFF0
E070
E070
E070
ENDCHAR
STARTCHAR 00C6
ENCODING 198
SWIDTH 1000 0
DWIDTH 16 0
BBX 15 11 1 0
BITMAP
0FFE
1DC0
39C0
71C0
E1C0
FFFC
E1C0
E1C0
E1C0
E1C0
E1FE
ENDCHAR
STARTCHAR 00C7
ENCODING 199
SWIDTH 1000 0
DWIDTH 16 0
BBX 13 13 2 -2
BITMAP
1FE0
7038
E018
E000
E000
E000
E000
E018
7038
1FE0
00E0
0070
3FE0
ENDCHAR
STARTCHAR 00C9
ENCODING 201
SWIDTH 1000 0
DWIDTH 16 0
BBX 12 13 2 0
BITMAP
01C0
0700
1C00
0000
FFF0
E000
E000
E000
FF80
E000
E000
E000
FFF0
ENDCHAR
STARTCHAR 00D1
ENCODING 209
SWIDTH 1000 0
DWIDTH 16 0
BBX 13 12 2 0
BITMAP
1E78
F3C0
0000
F038
F838
FC38
EE38
E738
E3B8
E1F8
E0F8
E078
ENDCHAR
STARTCHAR 00D6
ENCODING 214
SWIDTH 1000 0
DWIDTH 16 0
BBX 13 12 2 0
BITMAP
7070
7070
0000
1FC0
7070
E038
E038
E038
E038
E038
7070
1FC0
ENDCHAR
STARTCHAR 00DC
ENCODING 220
SWIDTH 1000 0
DWIDTH 16 0
BBX 13 12 2 0
BITMAP
7070
7070
0000
E038
E038
E038
E038
E038
E038
E038
7070
1FC0
ENDCHAR
STARTCHAR 00DF
ENCODING 223
SWIDTH 1000 0
DWIDTH 16 0
BBX 13 10 2 -1
BITMAP
3FE0
E038
E038
FFE0
E038
E038
FFE0
E000
E000
6000
ENDCHAR
STARTCHAR 00E0
ENCODING 224
SWIDTH 1000 0
DWIDTH 16 0
BBX 13 11 2 0
BITMAP
1C00
0700
01C0
0000
3FE0
0038
3FF8
E038
E038
E038
3FF8
ENDCHAR
STARTCHAR 00E1
ENCODING 225
SWIDTH 1000 0
DWIDTH 16 0
BBX 13 11 2 0
BITMAP
01C0
0700
1C00
0000
3FE0
0038
3FF8
E038
E038
E038
3FF8
ENDCHAR
STARTCHAR 00E2
ENCODING 226
SWIDTH 1000 0
DWIDTH 16 0
BBX 13 11 2 0
BITMAP
0700
1DC0
7070
0000
3FE0
0038
3FF8
E038
E038
E038
3FF8
ENDCHAR
STARTCHAR 00E4
ENCODING 228
SWIDTH 1000 0
DWIDTH 16 0
BBX 13 10 2 0
BITMAP
7070
7070
0000
3FE0
0038
3FF8
E038
E038
E038
3FF8
ENDCHAR
STARTCHAR 00E5
ENCODING 229
SWIDTH 1000 0
DWIDTH 16 0
BBX 13 11 2 0
BITMAP
0F80
38E0
0F80
0000
3FE0
0038
3FF8
E038
E038
E038
3FF8
ENDCHAR
STARTCHAR 00E6
ENCODING 230
SWIDTH 1000 0
DWIDTH 16 0
BBX 16 7 0 0
BITMAP
3E7E
03C7
03C7
7FFE
E3C0
E3C0
7FFF
ENDCHAR
STARTCHAR 00E7
ENCODING 231
SWIDTH 1000 0
DWIDTH 16 0
BBX 12 9 2 -2
BITMAP
3FC0
E070
E000
E000
E070
3FC0
01C0
00E0
3FC0
ENDCHAR
STARTCHAR 00E8
ENCODING 232
SWIDTH 1000 0
DWIDTH 16 0
BBX 13 11 2 0
BITMAP
1C00
0700
01C0
0000
3FE0
E038
E038
FFF8
E000
E000
3FF0
ENDCHAR
STARTCHAR 00E9
ENCODING 233
SWIDTH 1000 0
DWIDTH 16 0
BBX 13 11 2 0
BITMAP
00E0
0380
0E00
0000
3FE0
E038
E038
FFF8
E000
E000
3FF0
ENDCHAR
STARTCHAR 00EA
ENCODING 234
SWIDTH 1000 0
DWIDTH 16 0
BBX 13 11 2 0
BITMAP
0700
1DC0
7070
0000
3FE0
E038
E038
FFF8
E000
E000
3FF0
ENDCHAR
STARTCHAR 00EB
ENCODING 235
SWIDTH 1000 0
DWIDTH 16 0
BBX 13 10 2 0
BITMAP
7070
7070
0000
3FE0
E038
E038
FFF8
E000
E000
3FF0
ENDCHAR
STARTCHAR 00EC
ENCODING 236
SWIDTH 1000 0
DWIDTH 16 0
BBX 7 11 4 0
BITMAP
E0
38
0E
00
1C
1C
1C
1C
1C
1C
1C
ENDCHAR
STARTCHAR 00ED
ENCODING 237
SWIDTH 1000 0
DWIDTH 16 0
BBX 7 11 5 0
BITMAP
0E
38
E0
00
38
38
38
38
38
38
38
ENDCHAR
STARTCHAR 00EE
ENCODING 238
SWIDTH 1000 0
DWIDTH 16 0
BBX 11 11 3 0
BITMAP
0E00
3B80
E0E0
0000
0E00
0E00
0E00
0E00
0E00
0E00
0E00
ENDCHAR
STARTCHAR 00EF
ENCODING 239
SWIDTH 1000 0
DWIDTH 16 0
BBX 11 10 3 0
BITMAP
E0E0
E0E0
0000
0E00
0E00
0E00
0E00
0E00
0E00
0E00
ENDCHAR
STARTCHAR 00F1
ENCODING 241
SWIDTH 1000 0
DWIDTH 16 0
BBX 12 10 2 0
BITMAP
1E70
F3C0
0000
FF80
E0E0
E070
E070
E070
E070
E070
ENDCHAR
STARTCHAR 00F2
ENCODING 242
SWIDTH 1000 0
DWIDTH 16 0
BBX 13 11 2 0
BITMAP
1C00
0700
01C0
0000
1FC0
7070
E038
E038
E038
7070
1FC0
ENDCHAR
STARTCHAR 00F3
ENCODING 243
SWIDTH 1000 0
DWIDTH 16 0
BBX 13 11 2 0
BITMAP
01C0
0700
1C00
0000
1FC0
7070
E038
E038
E038
7070
1FC0
ENDCHAR
STARTCHAR 00F4
ENCODING 244
SWIDTH 1000 0
DWIDTH 16 0
BBX 13 11 2 0
BITMAP
0700
1DC0
7070
0000
1FC0
7070
E038
E038
E038
7070
1FC0
ENDCHAR
STARTCHAR 00F6
ENCODING 246
SWIDTH 1000 0
DWIDTH 16 0
BBX 13 10 2 0
BITMAP
7070
7070
0000
1FC0
7070
E038
E038
E038
7070
1FC0
ENDCHAR
STARTCHAR 00F7
ENCODING 247
SWIDTH 1000 0
DWIDTH 16 0
BBX 13 9 2 1
BITMAP
0700
0700
0000
0000
FFF8
0000
0000
0700
0700
ENDCHAR
STARTCHAR 00F9
ENCODING 249
SWIDTH 1000 0
DWIDTH 16 0
BBX 12 11 2 0
BITMAP
3800
0E00
0380
0000
E070
E070
E070
E070
E070
E070
3FF0
ENDCHAR
STARTCHAR 00FA
ENCODING 250
SWIDTH 1000 0
DWIDTH 16 0
BBX 12 11 2 0
BITMAP
01C0
0700
1C00
0000
E070
E070
E070
E070
E070
E070
3FF0
ENDCHAR
STARTCHAR 00FB
ENCODING 251
SWIDTH 1000 0
DWIDTH 16 0
BBX 12 11 2 0
BITMAP
0F00
39C0
E070
0000
E070
E070
E070
E070
E070
E070
3FF0
ENDCHAR
STARTCHAR 00FC
ENCODING 252
SWIDTH 1000 0
DWIDTH 16 0
BBX 12 10 2 0
BITMAP
70E0
70E0
0000
E070
E070
E070
E070
E070
E070
3FF0
ENDCHAR
STARTCHAR 00FF
ENCODING 255
SWIDTH 1000 0
DWIDTH 16 0
BBX 13 12 2 -2
BITMAP
7070
7070
0000
E038
7070
38E0
1DC0
0F80
0700
0E00
1C00
3800
ENDCHAR
STARTCHAR 0192
ENCODING 402
SWIDTH 1000 0
DWIDTH 16 0
BBX 13 12 2 -1
BITMAP
01E0
0738
0700
0700
0700
7FF0
0700
0700
0700
0700
E700
3C00
ENDCHAR
STARTCHAR 0393
ENCODING 915
SWIDTH 1000 0
DWIDTH 16 0
BBX 13 11 2 0
BITMAP
FFF8
E038
E038
E000
E000
E000
E000
E000
E000
E000
E000
ENDCHAR
STARTCHAR 0398
ENCODING 920
SWIDTH 1000 0
DWIDTH 16 0
BBX 13 11 2 0
BITMAP
1FC0
7070
E038
E038
E038
FFF8
E038
E038
E038
7070
1FC0
ENDCHAR
STARTCHAR 03A3
ENCODING 931
SWIDTH 1000 0
DWIDTH 16 0
BBX 13 11 2 0
BITMAP
FFF8
E038
E000
3800
0E00
0380
0E00
3800
E000
E038
FFF8
ENDCHAR
STARTCHAR 03A6
ENCODING 934
SWIDTH 1000 0
DWIDTH 16 0
BBX 11 11 3 0
BITMAP
FFE0
0E00
3F80
71C0
E0E0
E0E0
E0E0
71C0
3F80
0E00
FFE0
ENDCHAR
STARTCHAR 03A9
ENCODING 937
SWIDTH 1000 0
DWIDTH 16 0
BBX 13 11 2 0
BITMAP
1FC0
7070
E038
E038
E038
E038
7070
38E0
38E0
38E0
F8F8
ENDCHAR
STARTCHAR 03B1
ENCODING 945
SWIDTH 1000 0
DWIDTH 16 0
BBX 14 7 1 0
BITMAP
1E1C
73B8
E1F0
E1E0
E1F0
73B8
1E1C
ENDCHAR
STARTCHAR 03B4
ENCODING 948
SWIDTH 1000 0
DWIDTH 16 0
BBX 12 11 2 0
BITMAP
0FC0
38E0
3800
0E00
0380
1FE0
7070
E070
E070
70E0
1F80
ENDCHAR
STARTCHAR 03B5
ENCODING 949
SWIDTH 1000 0
DWIDTH 16 0
BBX 10 11 2 0
BITMAP
0FC0
3800
E000
E000
E000
FFC0
E000
E000
E000
3800
0FC0
ENDCHAR
STARTCHAR 03C0
ENCODING 960
SWIDTH 1000 0
DWIDTH 16 0
BBX 13 7 2 0
BITMAP
FFF8
38E0
38E0
38E0
38E0
38E0
38E0
ENDCHAR
STARTCHAR 03C3
ENCODING 963
SWIDTH 1000 0
DWIDTH 16 0
BBX 14 7 2 0
BITMAP
1FFC
70E0
E0E0
E0E0
E0E0
71C0
1F00
ENDCHAR
STARTCHAR 03C4
ENCODING 964
SWIDTH 1000 0
DWIDTH 16 0
BBX 13 8 2 0
BITMAP
3E78
F3E0
0380
0380
0380
0380
0380
0380
ENDCHAR
STARTCHAR 03C6
ENCODING 966
SWIDTH 1000 0
DWIDTH 16 0
BBX 14 10 1 0
BITMAP
0038
0070
1FE0
71F8
E39C
E71C
7E38
1FE0
3800
7000
ENDCHAR
STARTCHAR 2022
ENCODING 8226
SWIDTH 1000 0
DWIDTH 16 0
BBX 8 4 4 3
BITMAP
3C
FF
FF
3C
ENDCHAR
STARTCHAR 203C
ENCODING 8252
SWIDTH 1000 0
DWIDTH 16 0
BBX 9 11 4 0
BITMAP
E380
E380
E380
E380
E380
E380
E380
E380
0000
E380
E380
ENDCHAR
STARTCHAR 207F
ENCODING 8319
SWIDTH 1000 0
DWIDTH 16 0
BBX 10 7 1 5
BITMAP
FF00
E1C0
E1C0
E1C0
E1C0
E1C0
E1C0
ENDCHAR
STARTCHAR 20A7
ENCODING 8359
SWIDTH 1000 0
DWIDTH 16 0
BBX 15 11 1 0
BITMAP
FF00
E1C0
E0E0
E1C0
FF38
E038
E0FE
E038
E038
E038
E038
ENDCHAR
STARTCHAR 2190
ENCODING 8592
SWIDTH 1000 0
DWIDTH 16 0
BBX 14 5 2 3
BITMAP
0E00
3800
FFFC
3800
0E00
ENDCHAR
STARTCHAR 2191
ENCODING 8593
SWIDTH 1000 0
DWIDTH 16 0
BBX 11 11 3 0
BITMAP
0E00
3F80
EEE0
0E00
0E00
0E00
0E00
0E00
0E00
0E00
0E00
ENDCHAR
STARTCHAR 2192
ENCODING 8594
SWIDTH 1000 0
DWIDTH 16 0
BBX 14 5 2 3
BITMAP
01C0
0070
FFFC
0070
01C0
ENDCHAR
STARTCHAR 2193
ENCODING 8595
SWIDTH 1000 0
DWIDTH 16 0
BBX 11 11 3 0
BITMAP
0E00
0E00
0E00
0E00
0E00
0E00
0E00
0E00
EEE0
3F80
0E00
ENDCHAR
STARTCHAR 2194
ENCODING 8596
SWIDTH 1000 0
DWIDTH 16 0
BBX 14 5 1 3
BITMAP
3870
7038
FFFC
7038
3870
ENDCHAR
STARTCHAR 2195
ENCODING 8597
SWIDTH 1000 0
DWIDTH 16 0
BBX 11 11 3 0
BITMAP
0E00
3F80
EEE0
0E00
0E00
0E00
0E00
0E00
EEE0
3F80
0E00
ENDCHAR
STARTCHAR 21A8
ENCODING 8616
SWIDTH 1000 0
DWIDTH 16 0
BBX 13 12 2 -1
BITMAP
0700
1FC0
7770
0700
0700
0700
0700
0700
7770
1FC0
0700
FFF8
ENDCHAR
STARTCHAR 2219
ENCODING 8729
SWIDTH 1000 0
DWIDTH 16 0
BBX 4 2 6 4
BITMAP
F0
F0
ENDCHAR
STARTCHAR 221A
ENCODING 8730
SWIDTH 1000 0
DWIDTH 16 0
BBX 16 12 0 0
BITMAP
007F
0070
0070
0070
0070
0070
0070
F870
1C70
0770
01F0
0070
ENDCHAR
STARTCHAR 221E
ENCODING 8734
SWIDTH 1000 0
DWIDTH 16 0
BBX 14 5 1 2
BITMAP
7CF8
E79C
E79C
E79C
7CF8
ENDCHAR
STARTCHAR 221F
ENCODING 8735
SWIDTH 1000 0
DWIDTH 16 0
BBX 14 4 2 3
BITMAP
E000
E000
E000
FFFC
ENDCHAR
STARTCHAR 2229
ENCODING 8745
SWIDTH 1000 0
DWIDTH 16 0
BBX 13 10 2 0
BITMAP
1FC0
7070
E038
E038
E038
E038
E038
E038
E038
E038
ENDCHAR
STARTCHAR 2248
ENCODING 8776
SWIDTH 1000 0
DWIDTH 16 0
BBX 13 5 2 3
BITMAP
1E78
F3C0
0000
1E78
F3C0
ENDCHAR
STARTCHAR 2261
ENCODING 8801
SWIDTH 1000 0
DWIDTH 16 0
BBX 13 7 2 2
BITMAP
FFF8
0000
0000
FFF8
0000
0000
FFF8
ENDCHAR
STARTCHAR 2264
ENCODING 8804
SWIDTH 1000 0
DWIDTH 16 0
BBX 12 9 2 1
BITMAP
01C0
0700
1C00
7000
1C00
0700
01C0
0000
FFF0
ENDCHAR
STARTCHAR 2265
ENCODING 8805
SWIDTH 1000 0
DWIDTH 16 0
BBX 12 9 2 1
BITMAP
3800
0E00
0380
00E0
0380
0E00
3800
0000
FFF0
ENDCHAR
STARTCHAR 2302
ENCODING 8962
SWIDTH 1000 0
DWIDTH 16 0
BBX 15 6 1 3
BITMAP
0380
0EE0
3838
E00E
E00E
FFFE
ENDCHAR
STARTCHAR 2310
ENCODING 8976
SWIDTH 1000 0
DWIDTH 16 0
BBX 14 4 2 2
BITMAP
FFFC
E000
E000
E000
ENDCHAR
STARTCHAR 2320
ENCODING 8992
SWIDTH 1000 0
DWIDTH 16 0
BBX 9 14 7 -3
BITMAP
3E00
E380
E380
E000
E000
E000
E000
E000
E000
E000
E000
E000
E000
E000
ENDCHAR
STARTCHAR 2321
ENCODING 8993
SWIDTH 1000 0
DWIDTH 16 0
BBX 9 13 1 0
BITMAP
0380
0380
0380
0380
0380
0380
0380
0380
0380
0380
E380
E380
3E00
ENDCHAR
STARTCHAR 2500
ENCODING 9472
SWIDTH 1000 0
DWIDTH 16 0
BBX 16 1 0 4
BITMAP
FFFF
ENDCHAR
STARTCHAR 2502
ENCODING 9474
SWIDTH 1000 0
DWIDTH 16 0
BBX 3 16 7 -3
BITMAP
E0
E0
E0
E0
E0
E0
E0
E0
E0
E0
E0
E0
E0
E0
E0
E0
ENDCHAR
STARTCHAR 250C
ENCODING 9484
SWIDTH 1000 0
DWIDTH 16 0
BBX 9 8 7 -3
BITMAP
FF80
E000
E000
E000
E000
E000
E000
E000
ENDCHAR
STARTCHAR 2510
ENCODING 9488
SWIDTH 1000 0
DWIDTH 16 0
BBX 10 8 0 -3
BITMAP
FFC0
01C0
01C0
01C0
01C0
01C0
01C0
01C0
ENDCHAR
STARTCHAR 2514
ENCODING 9492
SWIDTH 1000 0
DWIDTH 16 0
BBX 9 9 7 4
BITMAP
E000
E000
E000
E000
E000
E000
E000
E000
FF80
ENDCHAR
STARTCHAR 2518
ENCODING 9496
SWIDTH 1000 0
DWIDTH 16 0
BBX 10 9 0 4
BITMAP
01C0
01C0
01C0
01C0
01C0
01C0
01C0
01C0
FFC0
ENDCHAR
STARTCHAR 251C
ENCODING 9500
SWIDTH 1000 0
DWIDTH 16 0
BBX 9 16 7 -3
BITMAP
E000
E000
E000
E000
E000
E000
E000
E000
FF80
E000
E000
E000
E000
E000
E000
E000
ENDCHAR
STARTCHAR 2524
ENCODING 9508
SWIDTH 1000 0
DWIDTH 16 0
BBX 10 16 0 -3
BITMAP
01C0
01C0
01C0
01C0
01C0
01C0
01C0
01C0
FFC0
01C0
01C0
01C0
01C0
01C0
01C0
01C0
ENDCHAR
STARTCHAR 252C
ENCODING 9516
SWIDTH 1000 0
DWIDTH 16 0
BBX 16 8 0 -3
BITMAP
FFFF
01C0
01C0
01C0
01C0
01C0
01C0
01C0
ENDCHAR
STARTCHAR 2534
ENCODING 9524
SWIDTH 1000 0
DWIDTH 16 0
BBX 16 9 0 4
BITMAP
01C0
01C0
01C0
01C0
01C0
01C0
01C0
01C0
FFFF
ENDCHAR
STARTCHAR 253C
ENCODING 9532
SWIDTH 1000 0
DWIDTH 16 0
BBX 16 16 0 -3
BITMAP
01C0
01C0
01C0
01C0
01C0
01C0
01C0
01C0
FFFF
01C0
01C0
01C0
01C0
01C0
01C0
01C0
ENDCHAR
STARTCHAR 2550
ENCODING 9552
SWIDTH 1000 0
DWIDTH 16 0
BBX 16 3 0 4
BITMAP
FFFF
0000
FFFF
ENDCHAR
STARTCHAR 2551
ENCODING 9553
SWIDTH 1000 0
DWIDTH 16 0
BBX 8 16 5 -3
BITMAP
E7
E7
E7
E7
E7
E7
E7
E7
E7
E7
E7
E7
E7
E7
E7
E7
ENDCHAR
STARTCHAR 2552
ENCODING 9554
SWIDTH 1000 0
DWIDTH 16 0
BBX 9 10 7 -3
BITMAP
FF80
E000
FF80
E000
E000
E000
E000
E000
E000
E000
ENDCHAR
STARTCHAR 2553
ENCODING 9555
SWIDTH 1000 0
DWIDTH 16 0
BBX 11 8 5 -3
BITMAP
FFE0
E700
E700
E700
E700
E700
E700
E700
ENDCHAR
STARTCHAR 2554
ENCODING 9556
SWIDTH 1000 0
DWIDTH 16 0
BBX 11 10 5 -3
BITMAP
FFE0
E000
E7E0
E700
E700
E700
E700
E700
E700
E700
ENDCHAR
STARTCHAR 2555
ENCODING 9557
SWIDTH 1000 0
DWIDTH 16 0
BBX 10 10 0 -3
BITMAP
FFC0
01C0
FFC0
01C0
01C0
01C0
01C0
01C0
01C0
01C0
ENDCHAR
STARTCHAR 2556
ENCODING 9558
SWIDTH 1000 0
DWIDTH 16 0
BBX 13 8 0 -3
BITMAP
FFF8
0738
0738
0738
0738
0738
0738
0738
ENDCHAR
STARTCHAR 2557
ENCODING 9559
SWIDTH 1000 0
DWIDTH 16 0
BBX 13 10 0 -3
BITMAP
FFF8
0038
FF38
0738
0738
0738
0738
0738
0738
0738
ENDCHAR
STARTCHAR 2558
ENCODING 9560
SWIDTH 1000 0
DWIDTH 16 0
BBX 9 9 7 4
BITMAP
E000
E000
E000
E000
E000
E000
FF80
E000
FF80
ENDCHAR
STARTCHAR 2559
ENCODING 9561
SWIDTH 1000 0
DWIDTH 16 0
BBX 11 9 5 4
BITMAP
E700
E700
E700
E700
E700
E700
E700
E700
FFE0
ENDCHAR
STARTCHAR 255A
ENCODING 9562
SWIDTH 1000 0
DWIDTH 16 0
BBX 11 9 5 4
BITMAP
E700
E700
E700
E700
E700
E700
E7E0
E000
FFE0
ENDCHAR
STARTCHAR 255B
ENCODING 9563
SWIDTH 1000 0
DWIDTH 16 0
BBX 10 9 0 4
BITMAP
01C0
01C0
01C0
01C0
01C0
01C0
FFC0
01C0
FFC0
ENDCHAR
STARTCHAR 255C
ENCODING 9564
SWIDTH 1000 0
DWIDTH 16 0
BBX 13 9 0 4
BITMAP
0738
0738
0738
0738
0738
0738
0738
0738
FFF8
ENDCHAR
STARTCHAR 255D
ENCODING 9565
SWIDTH 1000 0
DWIDTH 16 0
BBX 13 9 0 4
BITMAP
0738
0738
0738
0738
0738
0738
FF38
0038
FFF8
ENDCHAR
STARTCHAR 255E
ENCODING 9566
SWIDTH 1000 0
DWIDTH 16 0
BBX 9 16 7 -3
BITMAP
E000
E000
E000
E000
E000
E000
FF80
E000
FF80
E000
E000
E000
E000
E000
E000
E000
ENDCHAR
STARTCHAR 255F
ENCODING 9567
SWIDTH 1000 0
DWIDTH 16 0
BBX 11 16 5 -3
BITMAP
E700
E700
E700
E700
E700
E700
E700
E700
E7E0
E700
E700
E700
E700
E700
E700
E700
ENDCHAR
STARTCHAR 2560
ENCODING 9568
SWIDTH 1000 0
DWIDTH 16 0
BBX 11 16 5 -3
BITMAP
E700
E700
E700
E700
E700
E700
E7E0
E000
E7E0
E700
E700
E700
E700
E700
E700
E700
ENDCHAR
STARTCHAR 2561
ENCODING 9569
SWIDTH 1000 0
DWIDTH 16 0
BBX 10 16 0 -3
BITMAP
01C0
01C0
01C0
01C0
01C0
01C0
FFC0
01C0
FFC0
01C0
01C0
01C0
01C0
01C0
01C0
01C0
ENDCHAR
STARTCHAR 2562
ENCODING 9570
SWIDTH 1000 0
DWIDTH 16 0
BBX 13 16 0 -3
BITMAP
0738
0738
0738
0738
0738
0738
0738
0738
FF38
0738
0738
0738
0738
0738
0738
0738
ENDCHAR
STARTCHAR 2563
ENCODING 9571
SWIDTH 1000 0
DWIDTH 16 0
BBX 13 16 0 -3
BITMAP
0738
0738
0738
0738
0738
0738
FF38
0038
FF38
0738
0738
0738
0738
0738
0738
0738
ENDCHAR
STARTCHAR 2564
ENCODING 9572
SWIDTH 1000 0
DWIDTH 16 0
BBX 16 10 0 -3
BITMAP
FFFF
0000
FFFF
01C0
01C0
01C0
01C0
01C0
01C0
01C0
ENDCHAR
STARTCHAR 2565
ENCODING 9573
SWIDTH 1000 0
DWIDTH 16 0
BBX 16 8 0 -3
BITMAP
FFFF
0738
0738
0738
0738
0738
0738
0738
ENDCHAR
STARTCHAR 2566
ENCODING 9574
SWIDTH 1000 0
DWIDTH 16 0
BBX 16 10 0 -3
BITMAP
FFFF
0000
FF3F
0738
0738
0738
0738
0738
0738
0738
ENDCHAR
STARTCHAR 2567
ENCODING 9575
SWIDTH 1000 0
DWIDTH 16 0
BBX 16 9 0 4
BITMAP
01C0
01C0
01C0
01C0
01C0
01C0
FFFF
0000
FFFF
ENDCHAR
STARTCHAR 2568
ENCODING 9576
SWIDTH 1000 0
DWIDTH 16 0
BBX 16 9 0 4
BITMAP
0738
0738
0738
0738
0738
0738
0738
0738
FFFF
ENDCHAR
STARTCHAR 2569
ENCODING 9577
SWIDTH 1000 0
DWIDTH 16 0
BBX 16 9 0 4
BITMAP
0738
0738
0738
0738
0738
0738
FF3F
0000
FFFF
ENDCHAR
STARTCHAR 256A
ENCODING 9578
SWIDTH 1000 0
DWIDTH 16 0
BBX 16 16 0 -3
BITMAP
01C0
01C0
01C0
01C0
01C0
01C0
FFFF
01C0
FFFF
01C0
01C0
01C0
01C0
01C0
01C0
01C0
ENDCHAR
STARTCHAR 256B
ENCODING 9579
SWIDTH 1000 0
DWIDTH 16 0
BBX 16 16 0 -3
BITMAP
0738
0738
0738
0738
0738
0738
0738
0738
FFFF
0738
0738
0738
0738
0738
0738
0738
ENDCHAR
STARTCHAR 256C
ENCODING 9580
SWIDTH 1000 0
DWIDTH 16 0
BBX 16 16 0 -3
BITMAP
0738
0738
0738
0738
0738
0738
FF3F
0000
FF3F
0738
0738
0738
0738
0738
0738
0738
ENDCHAR
STARTCHAR 2580
ENCODING 9600
SWIDTH 1000 0
DWIDTH 16 0
BBX 16 8 0 5
BITMAP
FFFF
FFFF
FFFF
FFFF
FFFF
FFFF
FFFF
FFFF
ENDCHAR
STARTCHAR 2584
ENCODING 9604
SWIDTH 1000 0
DWIDTH 16 0
BBX 16 8 0 -3
BITMAP
FFFF
FFFF
FFFF
FFFF
FFFF
FFFF
FFFF
FFFF
ENDCHAR
STARTCHAR 2588
ENCODING 9608
SWIDTH 1000 0
DWIDTH 16 0
BBX 16 16 0 -3
BITMAP
FFFF
FFFF
FFFF
FFFF
FFFF
FFFF
FFFF
FFFF
FFFF
FFFF
FFFF
FFFF
FFFF
FFFF
FFFF
FFFF
ENDCHAR
STARTCHAR 258C
ENCODING 9612
SWIDTH 1000 0
DWIDTH 16 0
BBX 8 16 0 -3
BITMAP
FF
FF
FF
FF
FF
FF
FF
FF
FF
FF
FF
FF
FF
FF
FF
FF
ENDCHAR
STARTCHAR 2590
ENCODING 9616
SWIDTH 1000 0
DWIDTH 16 0
BBX 8 16 8 -3
BITMAP
FF
FF
FF
FF
FF
FF
FF
FF
FF
FF
FF
FF
FF
FF
FF
FF
ENDCHAR
STARTCHAR 2591
ENCODING 9617
SWIDTH 1000 0
DWIDTH 16 0
BBX 14 16 2 -3
BITMAP
0C0C
C0C0
0C0C
C0C0
0C0C
C0C0
0C0C
C0C0
0C0C
C0C0
0C0C
C0C0
0C0C
C0C0
0C0C
C0C0
ENDCHAR
STARTCHAR 2592
ENCODING 9618
SWIDTH 1000 0
DWIDTH 16 0
BBX 16 16 0 -3
BITMAP
3333
CCCC
3333
CCCC
3333
CCCC
3333
CCCC
3333
CCCC
3333
CCCC
3333
CCCC
3333
CCCC
ENDCHAR
STARTCHAR 2593
ENCODING 9619
SWIDTH 1000 0
DWIDTH 16 0
BBX 16 16 0 -3
BITMAP
F3F3
3F3F
F3F3
3F3F
F3F3
3F3F
F3F3
3F3F
F3F3
3F3F
F3F3
3F3F
F3F3
3F3F
F3F3
3F3F
ENDCHAR
STARTCHAR 25A0
ENCODING 9632
SWIDTH 1000 0
DWIDTH 16 0
BBX 10 6 3 2
BITMAP
FFC0
FFC0
FFC0
FFC0
FFC0
FFC0
ENDCHAR
STARTCHAR 25AC
ENCODING 9644
SWIDTH 1000 0
DWIDTH 16 0
BBX 14 3 2 0
BITMAP
FFFC
FFFC
FFFC
ENDCHAR
STARTCHAR 25B2
ENCODING 9650
SWIDTH 1000 0
DWIDTH 16 0
BBX 14 7 1 2
BITMAP
0300
0780
0FC0
1FE0
3FF0
7FF8
FFFC
ENDCHAR
STARTCHAR 25BA
ENCODING 9658
SWIDTH 1000 0
DWIDTH 16 0
BBX 12 11 2 0
BITMAP
C000
F000
FC00
FF00
FFC0
FFF0
FFC0
FF00
FC00
F000
C000
ENDCHAR
STARTCHAR 25BC
ENCODING 9660
SWIDTH 1000 0
DWIDTH 16 0
BBX 14 7 1 2
BITMAP
FFFC
7FF8
3FF0
1FE0
0FC0
0780
0300
ENDCHAR
STARTCHAR 25C4
ENCODING 9668
SWIDTH 1000 0
DWIDTH 16 0
BBX 12 11 2 0
BITMAP
0030
00F0
03F0
0FF0
3FF0
FFF0
3FF0
0FF0
03F0
00F0
0030
ENDCHAR
STARTCHAR 25CB
ENCODING 9675
SWIDTH 1000 0
DWIDTH 16 0
BBX 12 6 2 2
BITMAP
3FC0
F0F0
C030
C030
F0F0
3FC0
ENDCHAR
STARTCHAR 25D8
ENCODING 9688
SWIDTH 1000 0
DWIDTH 16 0
BBX 16 16 0 -3
BITMAP
FFFF
FFFF
FFFF
FFFF
FFFF
FFFF
FC3F
F00F
F00F
FC3F
FFFF
FFFF
FFFF
FFFF
FFFF
FFFF
ENDCHAR
STARTCHAR 25D9
ENCODING 9689
SWIDTH 1000 0
DWIDTH 16 0
BBX 16 16 0 -3
BITMAP
FFFF
FFFF
FFFF
FFFF
FFFF
F00F
C3C3
CFF3
CFF3
C3C3
F00F
FFFF
FFFF
FFFF
FFFF
FFFF
ENDCHAR
STARTCHAR 263A
ENCODING 9786
SWIDTH 1000 0
DWIDTH 16 0
BBX 16 11 0 0
BITMAP
3FFC
6006
C003
CC33
C003
C003
CFF3
C3C3
C003
6006
3FFC
ENDCHAR
STARTCHAR 263B
ENCODING 9787
SWIDTH 1000 0
DWIDTH 16 0
BBX 16 11 0 0
BITMAP
3FFC
7FFE
FFFF
F3CF
FFFF
FFFF
F00F
FC3F
FFFF
7FFE
3FFC
ENDCHAR
STARTCHAR 263C
ENCODING 9788
SWIDTH 1000 0
DWIDTH 16 0
BBX 15 9 1 1
BITMAP
0380
739C
3BB8
1FF0
FC7E
1FF0
3BB8
739C
0380
ENDCHAR
STARTCHAR 2640
ENCODING 9792
SWIDTH 1000 0
DWIDTH 16 0
BBX 11 11 3 0
BITMAP
1F00
71C0
E0E0
E0E0
71C0
1F00
0E00
0E00
FFE0
0E00
0E00
ENDCHAR
STARTCHAR 2642
ENCODING 9794
SWIDTH 1000 0
DWIDTH 16 0
BBX 14 10 2 0
BITMAP
01FC
007C
00EC
01C0
1F80
70E0
E070
E070
70E0
1F80
ENDCHAR
STARTCHAR 2660
ENCODING 9824
SWIDTH 1000 0
DWIDTH 16 0
BBX 15 11 1 0
BITMAP
0380
0FE0
3FF8
FFFE
FFFE
FFFE
3BB8
0380
0380
0380
0FE0
ENDCHAR
STARTCHAR 2663
ENCODING 9827
SWIDTH 1000 0
DWIDTH 16 0
BBX 13 11 2 0
BITMAP
0700
0F80
0F80
7770
FFF8
FFF8
7770
0700
0700
0700
1FC0
ENDCHAR
STARTCHAR 2665
ENCODING 9829
SWIDTH 1000 0
DWIDTH 16 0
BBX 14 9 1 1
BITMAP
3CF0
7FF8
FFFC
FFFC
FFFC
7FF8
3FF0
0FC0
0300
ENDCHAR
STARTCHAR 2666
ENCODING 9830
SWIDTH 1000 0
DWIDTH 16 0
BBX 10 9 3 1
BITMAP
0C00
1E00
3F00
7F80
FFC0
7F80
3F00
1E00
0C00
ENDCHAR
STARTCHAR 266A
ENCODING 9834
SWIDTH 1000 0
DWIDTH 16 0
BBX 15 11 1 0
BITMAP
1FFE
1C0E
1FFE
1C00
1C00
1C00
1C00
1C00
7C00
FC00
7800
ENDCHAR
STARTCHAR 266B
ENCODING 9835
SWIDTH 1000 0
DWIDTH 16 0
BBX 14 12 1 -1
BITMAP
3FFC
381C
3FFC
381C
381C
381C
381C
381C
383C
787C
F838
7000
ENDCHAR
ENDFONT
